# AST/ASF file generated using VICON BodyLanguage
# -----------------------------------------------
:version 1.10
:name VICON
:units
  mass 1.0
  length 0.45
  angle deg
:documentation
   .ast/.asf automatically generated from VICON data using
   VICON BodyBuilder and BodyLanguage model FoxedUp or BRILLIANT.MOD
:root
   order TX TY TZ RX RY RZ
   axis XYZ
   position 0 0 0  
   orientation 0 0 0 
:bonedata
  begin
     id 1 
     name lhipjoint
     direction 0.547975 -0.797114 0.253638 
     length 2.36201 
     axis 0 0 0  XYZ
  end
  begin
     id 2 
     name lfemur
     direction 0.34202 -0.939693 0  
     length 7.69075  
     axis 0 0 20  XYZ
    dof rx ry rz
    limits (-160.0 20.0)
           (-70.0 70.0)
           (-60.0 70.0)
  end
  begin
     id 3 
     name ltibia
     direction 0.34202 -0.939693 0   
     length 7.91399   
     axis 0 0 20   XYZ
    dof rx
    limits (-10.0 170.0)
  end
  begin
     id 4 
     name lfoot
     direction 0.0705293 -0.193778 0.978507   
     length 2.13618   
     axis -90 7.62852e-016 20   XYZ
    dof rx rz
    limits (-45.0 90.0)
           (-70.0 20.0)
  end
  begin
     id 5 
     name ltoes
     direction 1.53592e-011 -4.21925e-011 1   
     length 1.07518   
     axis -90 7.62852e-016 20   XYZ
    dof rx
    limits (-90.0 20.0)
  end
  begin
     id 6 
     name rhipjoint
     direction -0.57 -0.782963 0.249136   
     length 2.4047  
     axis 0 0 0  XYZ 
  end
  begin
     id 7 
     name rfemur
     direction -0.34202 -0.939693 0   
     length 7.51486   
     axis 0 0 -20   XYZ
    dof rx ry rz
    limits (-160.0 20.0)
           (-70.0 70.0)
           (-70.0 60.0)
  end
  begin
     id 8 
     name rtibia
     direction -0.34202 -0.939693 0   
     length 8.08317   
     axis 0 0 -20   XYZ
    dof rx
    limits (-10.0 170.0)
 end
 begin
     id 9 
     name rfoot
     direction -0.104954 -0.281256 0.953876   
     length 2.30343  
     axis -90 -7.62852e-016 -20   XYZ
    dof rx rz
    limits (-45.0 90.0)
           (-20.0 70.0)
  end
  begin
     id 10 
     name rtoes
     direction -1.53556e-011 -4.21922e-011 1   
     length 1.14803   
     axis -90 -7.62852e-016 -20   XYZ
    dof rx
    limits (-90.0 20.0)
  end
  begin
     id 11 
     name lowerback
     direction -0.0152855 0.99353 -0.11254   
     length 2.05311   
     axis 0 0 0   XYZ
    dof rx ry rz
    limits (-20.0 45.0)
           (-30.0 30.0)
           (-30.0 30.0)
  end
  begin
     id 12 
     name upperback
     direction -0.00157509 0.999443 -0.033332   
     length 2.06353   
     axis 0 0 0   XYZ
    dof rx ry rz
    limits (-20.0 45.0)
           (-30.0 30.0)
           (-30.0 30.0)
  end
  begin
     id 13 
     name thorax
     direction 0.00577788 0.999804 0.0189484   
     length 2.08472   
     axis 0 0 0   XYZ
    dof rx ry rz
    limits (-20.0 45.0)
           (-30.0 30.0)
           (-30.0 30.0)
  end
  begin
     id 14 
     name lowerneck
     direction -1.09301e-005 0.994719 0.10264   
     length 1.76249   
     axis 0 0 0   XYZ
    dof rx ry rz
    limits (-20.0 45.0)
           (-30.0 30.0)
           (-30.0 30.0)
  end
  begin
     id 15 
     name upperneck
     direction 0.0495018 0.988526 -0.142706   
     length 1.77897   
     axis 0 0 0   XYZ
    dof rx ry rz
    limits (-20.0 45.0)
           (-30.0 30.0)
           (-30.0 30.0)
  end
  begin
     id 16
     name head
     direction 0.0142736 0.998114 -0.0597101  
     length 1.78934  
     axis 0 0 0   XYZ
    dof rx ry rz
    limits (-20.0 45.0)
           (-30.0 30.0)
           (-30.0 30.0)
  end
  begin
     id 17 
     name lclavicle
     direction 0.918111 0.396107 -0.0130883  
     length 3.37276  
     axis 0 0 0   XYZ
    dof ry rz
    limits (-20.0 10.0)
           (0.0 20.0)
  end
  begin
     id 18 
     name lhumerus
     direction 1 -4.48975e-011 -3.26108e-027   
     length 5.34298   
     axis 180 -30 -90   XYZ
    dof rx ry rz
    limits (-60.0 90.0)
           (-90.0 90.0)
           (-90.0 90.0)
  end
  begin
     id 19
     name lradius
     direction 1 -4.48964e-011 -8.84413e-028   
     length 3.67262   
     axis 180 -30 -90   XYZ
    dof rx
    limits (-10.0 170.0)
  end
  begin
     id 20
     name lwrist
     direction 1 -4.48991e-011 -1.24264e-027   
     length 1.83631   
     axis -2.17013e-015 90 90   XYZ
    dof ry
    limits (-180.0 0.0)
 end
  begin
     id 21 
     name lhand
     direction 1 -4.48855e-011 -2.48528e-027   
     length 0.599298   
     axis 1.58582e-015 90 90   XYZ
    dof rx rz
    limits (-90.0 90.0)
           (-45.0 45.0)
  end
  begin
     id 22 
     name lfingers
     direction 1 -4.48811e-011 -4.97056e-027   
     length 0.48317   
     axis 3.17164e-015 90 90   XYZ
    dof rx
    limits (0.0 90.0)
  end
  begin
     id 23
     name lthumb
     direction 0.707107 -6.34882e-011 0.707107   
     length 0.693738   
     axis -90 45 2.85299e-015   XYZ
    dof rx rz
    limits (-45.0 45.0)
           (-45.0 45.0)
  end
  begin
     id 24 
     name rclavicle
     direction -0.920511 0.384752 -0.0680135   
     length 3.43787  
     axis 0 0 0   XYZ 
    dof ry rz
    limits (-10.0 20.0)
           (-20.0 0.0)
  end
  begin
     id 25 
     name rhumerus
     direction -0.999976 -0.00330524 0.00603274  
     length 5.5498   
     axis 180 30 90   XYZ
    dof rx ry rz
    limits (-90.0 60.0)
           (-90.0 90.0)
           (-90.0 90.0)
  end
  begin
     id 26 
     name rradius
     direction -1 -4.48967e-011 8.62438e-027   
     length 3.69401   
     axis 180 30 90   XYZ
    dof rx
    limits (-10.0 170.0)
  end
  begin
     id 27 
     name rwrist
     direction -1 -4.4897e-011 9.54866e-027   
     length 1.84701   
     axis -7.69462e-015 -90 -90   XYZ
    dof ry
    limits (-180.0 0.0)
  end
  begin
     id 28
     name rhand
     direction -1 -4.48982e-011 1.90973e-026   
     length 0.638113   
     axis -1.21857e-014 -90 -90   XYZ
    dof rx rz
    limits (-90.0 90.0)
           (-45.0 45.0)
  end
  begin
     id 29
     name rfingers
     direction -1 -4.48936e-011 3.81946e-026   
     length 0.514463   
     axis -2.43714e-014 -90 -90   XYZ
    dof rx
    limits (0.0 90.0)
  end
  begin
     id 30
     name rthumb
     direction -0.707107 -6.34942e-011 0.707107   
     length 0.738669   
     axis -90 -45 -2.85299e-015   XYZ
    dof rx rz
    limits (-45.0 45.0)
           (-45.0 45.0)
  end
:hierarchy
  begin
    root lhipjoint rhipjoint lowerback
    lhipjoint lfemur
    lfemur ltibia
    ltibia lfoot
    lfoot ltoes
    rhipjoint rfemur
    rfemur rtibia
    rtibia rfoot
    rfoot rtoes
    lowerback upperback
    upperback thorax
    thorax lowerneck lclavicle rclavicle
    lowerneck upperneck
    upperneck head
    lclavicle lhumerus
    lhumerus lradius
    lradius lwrist
    lwrist lhand lthumb
    lhand lfingers
    rclavicle rhumerus
    rhumerus rradius
    rradius rwrist
    rwrist rhand rthumb
    rhand rfingers
  end

#!OML:ASF F:\twosubjects\two\Thursday\Session 1\Rory.ASF
:FULLY-SPECIFIED
:DEGREES
111
root 14.3869 9.54568 5.26083 -36.7497 -87.4104 32.7543
lowerback 28.9989 -1.09289 -6.1366
upperback 6.03879 -3.95736 -1.58424
thorax -8.89508 -1.976 3.18805
lowerneck 3.3026 -17.6697 -14.0541
upperneck -16.3366 -23.0403 28.9636
head 0.104621 -12.7902 10.3609
rclavicle 3.33958e-014 2.38542e-015
rhumerus -34.0027 -18.3095 -63.3672
rradius 41.2561
rwrist 19.6113
rhand -24.9197 37.4031
rfingers 7.12502
rthumb 1.5891 7.42924
lclavicle 3.33958e-014 2.38542e-015
lhumerus -37.0078 15.0425 58.2852
lradius 40.9843
lwrist -17.0104
lhand -15.4228 22.0721
lfingers 7.12502
lthumb 10.7569 51.7766
rfemur -66.5621 -52.3991 -4.98016
rtibia 142.103
rfoot -43.3636 27.2138
rtoes -37.9598
lfemur -56.4561 60.8228 10.1483
ltibia 140.703
lfoot -34.1795 -48.5089
ltoes -16.2736
112
root 14.3967 9.68447 5.24789 -38.6651 -87.2256 34.7015
lowerback 29.1423 -1.07561 -6.45626
upperback 6.00865 -4.04581 -1.60265
thorax -8.97062 -2.00647 3.3882
lowerneck 3.2612 -17.775 -14.2011
upperneck -16.1026 -23.225 29.0261
head 0.243823 -12.8625 10.3432
rclavicle 2.5842e-014 5.48646e-014
rhumerus -33.8404 -18.019 -63.4307
rradius 40.9061
rwrist 18.9737
rhand -25.2754 37.6328
rfingers 7.12502
rthumb 1.24559 7.65665
lclavicle 2.5842e-014 5.48646e-014
lhumerus -37.218 15.4317 58.1511
lradius 40.9293
lwrist -17.5685
lhand -15.0162 21.9276
lfingers 7.12502
lthumb 11.1492 51.6114
rfemur -66.5172 -49.8913 -3.8679
rtibia 141.013
rfoot -42.0568 26.7712
rtoes -36.9415
lfemur -57.5835 58.3299 7.66304
ltibia 139.552
lfoot -33.5917 -47.1977
ltoes -16.5752
113
root 14.4094 9.81174 5.24171 -38.0576 -87.0807 34.5615
lowerback 28.8714 -1.24785 -6.56083
upperback 5.87652 -4.27184 -1.65615
thorax -8.96247 -2.10143 3.45447
lowerneck 3.17197 -17.7387 -14.5952
upperneck -15.743 -23.2508 29.3608
head 0.471143 -12.8547 10.4472
rclavicle 4.37326e-015 3.97569e-015
rhumerus -33.6572 -17.8692 -63.7326
rradius 40.6281
rwrist 18.6883
rhand -25.496 37.5614
rfingers 7.12502
rthumb 1.03248 7.58417
lclavicle 4.37326e-015 3.97569e-015
lhumerus -37.5455 15.7419 57.9107
lradius 40.8862
lwrist -17.8818
lhand -14.7217 21.5322
lfingers 7.12502
lthumb 11.4332 51.2004
rfemur -67.3011 -47.4713 -2.11972
rtibia 140.01
rfoot -41.4792 24.9734
rtoes -37.968
lfemur -59.3913 55.9376 4.95587
ltibia 138.522
lfoot -32.0078 -46.4238
ltoes -15.6772
114
root 14.4144 9.9598 5.23966 -35.5622 -87.0653 32.596
lowerback 28.5099 -1.41493 -6.44008
upperback 5.6956 -4.41896 -1.74346
thorax -8.99204 -2.1603 3.32356
lowerneck 3.48002 -17.5735 -14.6342
upperneck -15.8283 -23.0484 29.6932
head 0.41377 -12.8007 10.6272
rclavicle 3.97569e-015 2.94201e-014
rhumerus -34.0683 -18.0196 -63.9869
rradius 40.9065
rwrist 19.1221
rhand -25.8741 36.9178
rfingers 7.12502
rthumb 0.667355 6.93906
lclavicle 3.97569e-015 2.94201e-014
lhumerus -37.7166 15.2982 57.8913
lradius 40.8937
lwrist -17.2856
lhand -15.2735 22.3227
lfingers 7.12502
lthumb 10.9009 52.0197
rfemur -68.0989 -44.3933 -0.36733
rtibia 138.956
rfoot -40.1542 24.2815
rtoes -37.1327
lfemur -60.7314 53.213 2.69597
ltibia 137.374
lfoot -31.0958 -45.2793
ltoes -15.2208
115
root 14.4112 10.122 5.24044 -42.7674 -86.8311 39.7741
lowerback 28.6342 -1.30519 -6.80596
upperback 5.65768 -4.42923 -1.97502
thorax -9.08865 -2.15476 3.2838
lowerneck 3.9059 -17.6572 -14.4064
upperneck -16.1511 -23.1436 29.8651
head 0.270265 -12.9151 10.7047
rclavicle -1.35174e-014 1.51076e-014
rhumerus -34.5845 -18.0593 -64.101
rradius 41.1096
rwrist 19.2931
rhand -26.3122 36.0254
rfingers 7.12502
rthumb 0.244204 6.04581
lclavicle -1.35174e-014 1.51076e-014
lhumerus -37.6593 15.0159 57.8912
lradius 40.7784
lwrist -17.012
lhand -15.4913 22.9592
lfingers 7.12502
lthumb 10.6908 52.6672
rfemur -67.5504 -41.8708 -0.316665
rtibia 137.777
rfoot -39.2499 23.7801
rtoes -36.7639
lfemur -60.277 50.5019 0.911256
ltibia 136.018
lfoot -31.6379 -43.3136
ltoes -16.9533
116
root 14.404 10.2737 5.23825 -52.4459 -86.3682 49.4703
lowerback 28.5909 -1.0719 -7.58305
upperback 5.73223 -4.38685 -2.17671
thorax -8.94338 -2.1324 3.47916
lowerneck 3.9876 -17.8981 -14.288
upperneck -16.4186 -23.442 29.9961
head 0.249273 -13.0988 10.7018
rclavicle 3.97569e-014 2.78299e-014
rhumerus -34.5171 -17.8589 -64.2233
rradius 40.9807
rwrist 18.9559
rhand -26.7531 34.9016
rfingers 7.12502
rthumb -0.181624 4.92189
lclavicle 3.97569e-014 2.78299e-014
lhumerus -37.4931 15.181 57.9464
lradius 40.6209
lwrist -17.2957
lhand -15.355 22.8245
lfingers 7.12502
lthumb 10.8224 52.5257
rfemur -66.8302 -40.069 -0.79783
rtibia 136.582
rfoot -38.7988 23.3102
rtoes -36.8569
lfemur -59.8369 48.2267 -1.05164
ltibia 134.717
lfoot -31.4619 -41.7488
ltoes -17.4055
117
root 14.3989 10.4138 5.23558 -50.7925 -86.3423 48.0949
lowerback 28.1878 -1.04399 -7.65805
upperback 5.84536 -4.31627 -2.08559
thorax -8.60681 -2.11704 3.57423
lowerneck 3.69514 -18.0655 -14.3301
upperneck -16.4053 -23.6563 30.0582
head 0.361901 -13.1901 10.6483
rclavicle -3.57812e-015 -6.36111e-015
rhumerus -34.1494 -17.6292 -64.3401
rradius 40.7182
rwrist 18.5822
rhand -26.8545 34.0573
rfingers 7.12502
rthumb -0.279545 4.07776
lclavicle -3.57812e-015 -6.36111e-015
lhumerus -37.1688 15.3645 58.2454
lradius 40.4558
lwrist -17.4512
lhand -15.8497 23.0374
lfingers 7.12502
lthumb 10.3452 52.7629
rfemur -66.4335 -37.9165 0.00149322
rtibia 135.381
rfoot -38.2057 22.6601
rtoes -35.7475
lfemur -60.0191 46.613 -2.06775
ltibia 133.619
lfoot -30.8019 -41.1347
ltoes -16.1849
118
root 14.3978 10.5581 5.23579 -42.4329 -86.6535 39.8721
lowerback 27.9701 -1.18084 -7.24735
upperback 5.90581 -4.31633 -1.84084
thorax -8.43975 -2.13137 3.60066
lowerneck 3.52977 -18.1308 -14.4731
upperneck -16.1602 -23.7755 30.0353
head 0.498274 -13.2157 10.5995
rclavicle 1.43125e-014 -1.03368e-014
rhumerus -33.9731 -17.4981 -64.42
rradius 40.5845
rwrist 18.6534
rhand -25.9121 34.834
rfingers 7.12502
rthumb 0.630601 4.85519
lclavicle 1.43125e-014 -1.03368e-014
lhumerus -37.0982 15.7054 58.4154
lradius 40.2986
lwrist -17.4631
lhand -15.9819 23.2405
lfingers 7.12502
lthumb 10.2176 52.9724
rfemur -65.796 -35.2926 1.58938
rtibia 134.043
rfoot -37.7867 21.122
rtoes -35.0232
lfemur -59.7637 45.2074 -2.1092
ltibia 132.471
lfoot -29.5532 -41.2053
ltoes -12.6056
119
root 14.4017 10.7091 5.23435 -37.5736 -86.8981 35.2071
lowerback 27.8413 -1.33387 -6.9478
upperback 5.82092 -4.40385 -1.79123
thorax -8.4818 -2.16991 3.51037
lowerneck 3.60957 -18.0014 -14.8889
upperneck -15.8019 -23.6919 30.3733
head 0.680883 -13.1614 10.7482
rclavicle -1.39149e-014 1.59028e-014
rhumerus -34.1582 -17.6603 -64.4843
rradius 40.7413
rwrist 18.9509
rhand -25.514 36.0354
rfingers 7.12502
rthumb 1.01513 6.05808
lclavicle -1.39149e-014 1.59028e-014
lhumerus -37.3363 15.8698 58.3002
lradius 40.1176
lwrist -17.517
lhand -15.4792 22.8854
lfingers 7.12502
lthumb 10.7025 52.5928
rfemur -65.3589 -32.5299 3.04263
rtibia 132.678
rfoot -37.1487 19.2981
rtoes -35.3165
lfemur -59.4184 43.7029 -2.50094
ltibia 131.218
lfoot -28.5174 -40.8239
ltoes -10.0109
120
root 14.4053 10.8642 5.23195 -34.2401 -87.0122 32.1875
lowerback 27.6448 -1.4656 -6.60864
upperback 5.69235 -4.46489 -1.89864
thorax -8.55981 -2.19477 3.2118
lowerneck 3.68751 -17.8086 -15.2579
upperneck -15.4763 -23.5225 30.8537
head 0.85342 -13.0802 10.9554
rclavicle 3.10104e-014 1.90833e-014
rhumerus -34.5066 -17.9328 -64.5871
rradius 40.9078
rwrist 19.1951
rhand -26.0609 35.7807
rfingers 7.12502
rthumb 0.486941 5.80155
lclavicle 3.10104e-014 1.90833e-014
lhumerus -37.355 15.6276 58.196
lradius 39.8287
lwrist -17.6115
lhand -15.4467 22.6745
lfingers 7.12502
lthumb 10.7339 52.3802
rfemur -65.0356 -30.2574 4.1596
rtibia 131.408
rfoot -36.3816 17.9395
rtoes -35.1653
lfemur -59.3717 42.2121 -3.26233
ltibia 130.012
lfoot -29.6263 -39.0525
ltoes -13.3626
121
root 14.4006 11.0197 5.23493 -30.9688 -86.9456 29.1524
lowerback 27.3604 -1.5834 -6.42057
upperback 5.63683 -4.54304 -1.99156
thorax -8.49636 -2.23461 3.01303
lowerneck 4.02045 -17.7597 -14.8488
upperneck -15.568 -23.4419 30.7909
head 0.68962 -13.0841 10.9504
rclavicle -2.66371e-014 -7.95139e-015
rhumerus -34.6532 -17.9486 -64.8157
rradius 40.8593
rwrist 19.3256
rhand -26.5734 34.9642
rfingers 7.12502
rthumb -0.00804663 4.98445
lclavicle -2.66371e-014 -7.95139e-015
lhumerus -37.3168 15.5609 58.0896
lradius 39.6075
lwrist -17.7032
lhand -15.6995 23.0298
lfingers 7.12502
lthumb 10.4901 52.7481
rfemur -64.3726 -28.9119 4.79714
rtibia 130.181
rfoot -36.0455 17.0357
rtoes -34.6692
lfemur -59.2819 40.618 -4.08535
ltibia 128.829
lfoot -30.6421 -37.1849
ltoes -16.0764
122
root 14.3932 11.1783 5.24163 -29.1751 -87.0214 27.4319
lowerback 27.1263 -1.62908 -6.42082
upperback 5.6484 -4.57668 -1.97112
thorax -8.36072 -2.25575 3.03268
lowerneck 4.34732 -17.7376 -14.5557
upperneck -15.6911 -23.3954 30.6935
head 0.535097 -13.097 10.9436
rclavicle -2.10712e-014 2.06736e-014
rhumerus -34.6747 -17.7681 -65.0636
rradius 40.8567
rwrist 19.1151
rhand -27.2873 35.1002
rfingers 7.12502
rthumb -0.697617 5.12158
lclavicle -2.10712e-014 2.06736e-014
lhumerus -37.4643 16.1217 57.9479
lradius 39.4606
lwrist -18.1121
lhand -15.6116 23.3664
lfingers 7.12502
lthumb 10.5749 53.0804
rfemur -63.5214 -27.3508 5.39431
rtibia 128.854
rfoot -35.8941 15.8577
rtoes -34.6358
lfemur -58.7091 39.3122 -4.612
ltibia 127.541
lfoot -30.7206 -36.0374
ltoes -16.2832
123
root 14.3894 11.3406 5.24168 -23.7266 -87.2601 22.0699
lowerback 26.9953 -1.61414 -6.15672
upperback 5.66591 -4.45806 -1.85731
thorax -8.29604 -2.20654 2.96341
lowerneck 4.39312 -17.7402 -14.8128
upperneck -15.7033 -23.4256 30.9626
head 0.609801 -13.1216 11.054
rclavicle -1.55052e-014 -2.62396e-014
rhumerus -34.7157 -17.824 -65.1251
rradius 40.8684
rwrist 19.0232
rhand -27.4328 35.154
rfingers 7.12502
rthumb -0.838139 5.17591
lclavicle -1.55052e-014 -2.62396e-014
lhumerus -37.3501 16.3838 58.1048
lradius 39.2868
lwrist -18.4925
lhand -15.0783 23.2955
lfingers 7.12502
lthumb 11.0892 52.9826
rfemur -62.7709 -25.4329 6.43967
rtibia 127.384
rfoot -35.741 14.4459
rtoes -34.6019
lfemur -58.0409 38.2954 -4.74994
ltibia 126.13
lfoot -29.9704 -35.7608
ltoes -14.6785
